<svg width="26" height="26" viewBox="0 0 26 26" fill="none" xmlns="http://www.w3.org/2000/svg">
<path d="M12.9999 12.025C10.0489 12.025 9.45089 7.55301 9.45089 7.55301C9.09989 5.22601 10.1659 2.60001 12.9609 2.60001C15.7689 2.60001 16.8349 5.22601 16.4839 7.55301C16.4839 7.55301 15.9509 12.025 12.9999 12.025ZM12.9999 15.366L16.5359 13C19.6429 13 22.4119 16.029 22.4119 18.889V22.126C22.4119 22.126 17.6669 23.595 12.9999 23.595C8.25489 23.595 3.58789 22.126 3.58789 22.126V18.889C3.58789 15.964 6.10989 13.065 9.39889 13.065L12.9999 15.366Z" fill="#747474"/>
</svg>
