<svg width="25" height="24" viewBox="0 0 25 24" fill="none" xmlns="http://www.w3.org/2000/svg">
<path d="M13.8301 3C11.4431 3 9.15394 3.94821 7.46612 5.63604C5.77829 7.32387 4.83008 9.61305 4.83008 12H1.83008L5.72008 15.89L5.79008 16.03L9.83008 12H6.83008C6.83008 8.13 9.96008 5 13.8301 5C17.7001 5 20.8301 8.13 20.8301 12C20.8301 15.87 17.7001 19 13.8301 19C11.9001 19 10.1501 18.21 8.89008 16.94L7.47008 18.36C8.30349 19.198 9.29457 19.8627 10.3861 20.3158C11.4777 20.769 12.6482 21.0015 13.8301 21C16.217 21 18.5062 20.0518 20.194 18.364C21.8819 16.6761 22.8301 14.3869 22.8301 12C22.8301 9.61305 21.8819 7.32387 20.194 5.63604C18.5062 3.94821 16.217 3 13.8301 3ZM12.8301 8V13L17.1101 15.54L17.8301 14.33L14.3301 12.25V8H12.8301Z" fill="#747474"/>
</svg>
