<svg width="21" height="16" viewBox="0 0 21 16" fill="none" xmlns="http://www.w3.org/2000/svg">
<path d="M2.83008 16C2.28008 16 1.80941 15.8043 1.41808 15.413C1.02674 15.0217 0.830745 14.5507 0.830078 14V9H6.20508L7.93008 12.45C8.01341 12.6333 8.13841 12.771 8.30508 12.863C8.47175 12.955 8.64674 13.0007 8.83008 13C9.01341 13 9.18841 12.9543 9.35508 12.863C9.52174 12.7717 9.64674 12.634 9.73008 12.45L12.8301 6.25L13.9301 8.45C14.0134 8.63333 14.1384 8.771 14.3051 8.863C14.4717 8.955 14.6467 9.00067 14.8301 9H20.8301V14C20.8301 14.55 20.6344 15.021 20.2431 15.413C19.8517 15.805 19.3807 16.0007 18.8301 16H2.83008ZM0.830078 7V2C0.830078 1.45 1.02608 0.979333 1.41808 0.588C1.81008 0.196666 2.28074 0.000666667 2.83008 0H18.8301C19.3801 0 19.8511 0.196 20.2431 0.588C20.6351 0.98 20.8307 1.45067 20.8301 2V7H15.4551L13.7301 3.55C13.6467 3.36667 13.5217 3.23767 13.3551 3.163C13.1884 3.08833 13.0134 3.05067 12.8301 3.05C12.6467 3.05 12.4717 3.08767 12.3051 3.163C12.1384 3.23833 12.0134 3.36733 11.9301 3.55L8.83008 9.75L7.73008 7.55C7.64674 7.36667 7.52174 7.229 7.35508 7.137C7.18841 7.045 7.01341 6.99933 6.83008 7H0.830078Z" fill="#EC5C2D"/>
</svg>
